<svg width="24" height="24" viewBox="0 0 24 24" fill="none" xmlns="http://www.w3.org/2000/svg">
<g clip-path="url(#clip0_4_42)">
<path d="M12 20.5078C10.875 20.5078 9.82031 20.2943 8.83594 19.8672C7.85156 19.4453 6.98438 18.8594 6.23438 18.1094C5.48958 17.3646 4.90625 16.5026 4.48438 15.5234C4.0625 14.5391 3.85156 13.4844 3.85156 12.3594C3.85156 11.2344 4.0625 10.1797 4.48438 9.19531C4.90625 8.21094 5.48958 7.34635 6.23438 6.60156C6.98438 5.85156 7.85156 5.26562 8.83594 4.84375C9.82031 4.42188 10.875 4.21094 12 4.21094C13.125 4.21094 14.1797 4.42188 15.1641 4.84375C16.1484 5.26562 17.013 5.85156 17.7578 6.60156C18.5026 7.34635 19.0859 8.21094 19.5078 9.19531C19.9349 10.1797 20.1484 11.2344 20.1484 12.3594C20.1484 13.4844 19.9349 14.5391 19.5078 15.5234C19.0859 16.5026 18.5026 17.3646 17.7578 18.1094C17.013 18.8594 16.1484 19.4453 15.1641 19.8672C14.1797 20.2943 13.125 20.5078 12 20.5078ZM7.21875 14.1562C7.40104 14.6875 7.68229 15.1693 8.0625 15.6016C8.44792 16.0339 8.90104 16.3932 9.42188 16.6797C9.94271 16.9609 10.5026 17.151 11.1016 17.25C11.0807 17.2031 11.0651 17.1562 11.0547 17.1094C11.0443 17.0573 11.0391 17.0052 11.0391 16.9531V15.2188C10.6536 14.7448 10.1641 14.3646 9.57031 14.0781C8.97656 13.7865 8.3099 13.6406 7.57031 13.6406C7.40365 13.6406 7.28906 13.6901 7.22656 13.7891C7.16406 13.888 7.16146 14.0104 7.21875 14.1562ZM9.23438 10.0938C9.23438 10.5677 9.33073 11.0026 9.52344 11.3984C9.72135 11.7891 9.9974 12.1146 10.3516 12.375C10.7109 12.6302 11.1276 12.7891 11.6016 12.8516V16.9531C11.6016 17.0677 11.6406 17.1615 11.7188 17.2344C11.8021 17.3073 11.8984 17.3438 12.0078 17.3438C12.7214 17.3438 13.401 17.2083 14.0469 16.9375C14.6979 16.6667 15.263 16.2917 15.7422 15.8125C16.2266 15.3333 16.5755 14.7812 16.7891 14.1562C16.8464 14.0104 16.8438 13.888 16.7812 13.7891C16.7188 13.6901 16.6094 13.6406 16.4531 13.6406C15.8281 13.6406 15.2552 13.7422 14.7344 13.9453C14.2188 14.1432 13.7656 14.4167 13.375 14.7656C12.9844 15.1146 12.6667 15.5156 12.4219 15.9688V12.8516C12.901 12.7891 13.3177 12.6302 13.6719 12.375C14.026 12.1146 14.2995 11.7891 14.4922 11.3984C14.6849 11.0026 14.7812 10.5677 14.7812 10.0938C14.7812 9.85938 14.7578 9.6276 14.7109 9.39844C14.6693 9.16406 14.5938 8.92969 14.4844 8.69531C14.4271 8.57552 14.3359 8.50781 14.2109 8.49219C14.0859 8.47135 13.974 8.51042 13.875 8.60938L13.0312 9.47656L12.3047 8.53125C12.2266 8.42708 12.1276 8.375 12.0078 8.375C11.8932 8.375 11.7995 8.42708 11.7266 8.53125L10.9922 9.47656L10.1406 8.60938C10.0417 8.51042 9.92969 8.46875 9.80469 8.48438C9.6849 8.5 9.59896 8.57031 9.54688 8.69531C9.4375 8.92969 9.35677 9.16406 9.30469 9.39844C9.25781 9.6276 9.23438 9.85938 9.23438 10.0938Z" fill="black"/>
</g>
<defs>
<clipPath id="clip0_4_42">
<rect width="24" height="24" fill="white"/>
</clipPath>
</defs>
</svg>
