<svg width="24" height="24" viewBox="0 0 24 24" fill="none" xmlns="http://www.w3.org/2000/svg">
<g clip-path="url(#clip0_11_7)">
<path d="M13.0078 17.9688C13.0078 18.2396 12.9089 18.474 12.7109 18.6719C12.513 18.8698 12.276 18.9688 12 18.9688C11.7188 18.9688 11.4818 18.8698 11.2891 18.6719C11.0964 18.474 11 18.2396 11 17.9688V6.75781C11 6.48177 11.0964 6.24479 11.2891 6.04688C11.4818 5.84896 11.7188 5.75 12 5.75C12.276 5.75 12.513 5.84896 12.7109 6.04688C12.9089 6.24479 13.0078 6.48177 13.0078 6.75781V17.9688ZM6.39844 13.3672C6.1224 13.3672 5.88542 13.2708 5.6875 13.0781C5.48958 12.8802 5.39062 12.6406 5.39062 12.3594C5.39062 12.0833 5.48958 11.8464 5.6875 11.6484C5.88542 11.4505 6.1224 11.3516 6.39844 11.3516H17.6094C17.8802 11.3516 18.1146 11.4505 18.3125 11.6484C18.5104 11.8464 18.6094 12.0833 18.6094 12.3594C18.6094 12.6406 18.5104 12.8802 18.3125 13.0781C18.1146 13.2708 17.8802 13.3672 17.6094 13.3672H6.39844Z" fill="black"/>
</g>
<defs>
<clipPath id="clip0_11_7">
<rect width="24" height="24" fill="white"/>
</clipPath>
</defs>
</svg>
