<svg width="64" height="64" viewBox="0 0 64 64" fill="none" xmlns="http://www.w3.org/2000/svg">
<g clip-path="url(#clip0_112_1165)">
<path d="M22.8125 54.1094C20.7656 54.1094 18.9375 53.8203 17.3281 53.2422C15.7344 52.6641 14.3984 51.8359 13.3203 50.7578C11.0703 48.5234 9.94531 45.3516 9.94531 41.2422V22.9141C9.94531 18.7891 11.0703 15.6172 13.3203 13.3984C14.3984 12.3203 15.7344 11.4922 17.3281 10.9141C18.9375 10.3203 20.7656 10.0234 22.8125 10.0234L38.9609 10.0469C38.3203 11.4375 38 12.9297 38 14.5234C38 16.6328 38.5156 18.5547 39.5469 20.2891C40.5938 22.0234 41.9844 23.4141 43.7188 24.4609C45.4531 25.4922 47.375 26.0078 49.4844 26.0078C51.0938 26.0078 52.6016 25.6797 54.0078 25.0234L54.0312 41.2422C54.0312 45.3516 52.8984 48.5234 50.6328 50.7578C49.5703 51.8359 48.2344 52.6641 46.625 53.2422C45.0312 53.8203 43.2031 54.1094 41.1406 54.1094H22.8125ZM49.4844 22.6094C48 22.6094 46.6484 22.25 45.4297 21.5312C44.2109 20.7969 43.2344 19.8203 42.5 18.6016C41.7812 17.3672 41.4219 16.0156 41.4219 14.5469C41.4219 13.0781 41.7812 11.7344 42.5 10.5156C43.2344 9.28125 44.2109 8.30469 45.4297 7.58594C46.6484 6.85156 48 6.48438 49.4844 6.48438C50.9531 6.48438 52.2969 6.85156 53.5156 7.58594C54.75 8.30469 55.7266 9.28125 56.4453 10.5156C57.1797 11.7344 57.5469 13.0781 57.5469 14.5469C57.5469 16.0156 57.1797 17.3672 56.4453 18.6016C55.7266 19.8203 54.75 20.7969 53.5156 21.5312C52.2969 22.25 50.9531 22.6094 49.4844 22.6094Z" fill="white"/>
</g>
<defs>
<clipPath id="clip0_112_1165">
<rect width="64" height="64" fill="white"/>
</clipPath>
</defs>
</svg>
