<svg width="24" height="24" viewBox="0 0 24 24" fill="none" xmlns="http://www.w3.org/2000/svg">
<g clip-path="url(#clip0_12_158)">
<path d="M16.9531 5.48438C16.9531 5.27083 17.0104 5.10677 17.125 4.99219C17.2448 4.8724 17.4115 4.8125 17.625 4.8125C17.724 4.8125 17.8151 4.82812 17.8984 4.85938C17.9818 4.89062 18.0573 4.9349 18.125 4.99219L21.2734 7.63281C21.4349 7.76823 21.5156 7.93229 21.5156 8.125C21.5156 8.3125 21.4349 8.47135 21.2734 8.60156L18.125 11.2422C18.0573 11.2995 17.9818 11.3464 17.8984 11.3828C17.8151 11.4141 17.724 11.4297 17.625 11.4297C17.4115 11.4297 17.2448 11.3698 17.125 11.25C17.0104 11.1302 16.9531 10.9661 16.9531 10.7578V5.48438ZM2.47656 16.6328C2.47656 16.3828 2.5625 16.1745 2.73438 16.0078C2.91146 15.8411 3.13281 15.7578 3.39844 15.7578H5.15625C5.60938 15.7578 6 15.6719 6.32812 15.5C6.65625 15.3281 6.98698 15.0391 7.32031 14.6328L12.0312 8.95312C12.5521 8.32812 13.0703 7.89844 13.5859 7.66406C14.1016 7.42448 14.724 7.30469 15.4531 7.30469H18.1016C18.3464 7.30469 18.5547 7.39323 18.7266 7.57031C18.8984 7.74219 18.9844 7.94792 18.9844 8.1875C18.9844 8.42708 18.8984 8.63281 18.7266 8.80469C18.5547 8.97656 18.3464 9.0625 18.1016 9.0625H15.4062C15.0885 9.0625 14.8099 9.09896 14.5703 9.17188C14.3307 9.23958 14.1042 9.35677 13.8906 9.52344C13.6823 9.6849 13.4661 9.90104 13.2422 10.1719L8.38281 16.0078C7.92969 16.5495 7.47135 16.9349 7.00781 17.1641C6.54427 17.3932 5.96875 17.5078 5.28125 17.5078H3.39844C3.13281 17.5078 2.91146 17.4245 2.73438 17.2578C2.5625 17.0911 2.47656 16.8828 2.47656 16.6328ZM16.9531 19.3594V14.0859C16.9531 13.8776 17.0104 13.7135 17.125 13.5938C17.2448 13.474 17.4115 13.4141 17.625 13.4141C17.724 13.4141 17.8151 13.4323 17.8984 13.4688C17.9818 13.5 18.0573 13.5443 18.125 13.6016L21.2734 16.2344C21.4349 16.3698 21.5156 16.5312 21.5156 16.7188C21.5156 16.9062 21.4349 17.0677 21.2734 17.2031L18.125 19.8516C18.0573 19.9036 17.9818 19.9453 17.8984 19.9766C17.8151 20.0078 17.724 20.0234 17.625 20.0234C17.4115 20.0234 17.2448 19.9635 17.125 19.8438C17.0104 19.7292 16.9531 19.5677 16.9531 19.3594ZM2.47656 8.22656C2.47656 7.97656 2.5625 7.76823 2.73438 7.60156C2.91146 7.4349 3.13281 7.35156 3.39844 7.35156H5.28125C5.96875 7.35156 6.54427 7.46615 7.00781 7.69531C7.47135 7.92448 7.92969 8.3099 8.38281 8.85156L13.2422 14.6875C13.4661 14.9583 13.6823 15.1771 13.8906 15.3438C14.1042 15.5052 14.3307 15.6224 14.5703 15.6953C14.8099 15.763 15.0885 15.7969 15.4062 15.7969H18.1016C18.3464 15.7969 18.5547 15.8828 18.7266 16.0547C18.8984 16.2266 18.9844 16.4323 18.9844 16.6719C18.9844 16.9115 18.8984 17.1198 18.7266 17.2969C18.5547 17.4688 18.3464 17.5547 18.1016 17.5547H15.4531C14.724 17.5547 14.1016 17.4375 13.5859 17.2031C13.0703 16.9635 12.5521 16.5286 12.0312 15.8984L7.32031 10.2266C6.98698 9.82031 6.65625 9.53125 6.32812 9.35938C6 9.1875 5.60938 9.10156 5.15625 9.10156H3.39844C3.13281 9.10156 2.91146 9.01823 2.73438 8.85156C2.5625 8.6849 2.47656 8.47656 2.47656 8.22656Z" fill="black"/>
</g>
<defs>
<clipPath id="clip0_12_158">
<rect width="24" height="24" fill="white"/>
</clipPath>
</defs>
</svg>
